<?xml version="1.0" encoding="utf-8"?>
<!DOCTYPE svg PUBLIC "-//W3C//DTD SVG 1.1//EN" "http://www.w3.org/Graphics/SVG/1.1/DTD/svg11.dtd">
<svg version="1.1" id="Layer_1" xmlns="http://www.w3.org/2000/svg" xmlns:xlink="http://www.w3.org/1999/xlink" x="0px" y="0px"
	 viewBox="0 0 265 265" enable-background="new 0 0 265 265" xml:space="preserve">
<path fill="#FFFFFF" d="M261.3,121.9l-63.6-109C190-0.4,192.3,0.1,178,0H32.9C14.8,0,0,14.8,0,33v199c0,18.1,14.8,33,32.9,33h145
	c8.9,0,10.6,0.1,15.1-8l68.6-114.7C265.8,135.4,266.6,129.1,261.3,121.9z M162.7,54.1c17.5,0,31.8,14.3,31.8,31.9
	s-14.3,31.9-31.8,31.9c-17.5,0-31.8-14.3-31.8-31.9S145.1,54.1,162.7,54.1z M99.2,39.2c17.5,0,31.8,14.3,31.8,31.9
	c0,17.6-14.3,31.9-31.8,31.9S67.4,88.7,67.4,71.1S81.7,39.2,99.2,39.2z M22.8,118.7c0-17.6,14.3-31.9,31.8-31.9s31.8,14.3,31.8,31.9
	s-14.3,31.9-31.8,31.9S22.8,136.3,22.8,118.7z M73.5,213.2c-17.5,0-31.8-14.3-31.8-31.9s14.3-31.9,31.8-31.9s31.8,14.3,31.8,31.9
	S91,213.2,73.5,213.2z M136.9,228.1c-17.5,0-31.8-14.3-31.8-31.9s14.3-31.9,31.8-31.9s31.8,14.3,31.8,31.9
	C168.8,213.7,154.5,228.1,136.9,228.1z M181.5,180.4c-17.5,0-31.8-14.3-31.8-31.9c0-17.6,14.3-31.9,31.8-31.9s31.8,14.3,31.8,31.9
	C213.4,166.1,199,180.4,181.5,180.4z"/>
</svg>
