<?xml version="1.0" encoding="utf-8"?>
<!-- Generator: Adobe Illustrator 18.0.0, SVG Export Plug-In . SVG Version: 6.00 Build 0)  -->
<!DOCTYPE svg PUBLIC "-//W3C//DTD SVG 1.1//EN" "http://www.w3.org/Graphics/SVG/1.1/DTD/svg11.dtd">
<svg version="1.1" id="Layer_1" xmlns="http://www.w3.org/2000/svg" xmlns:xlink="http://www.w3.org/1999/xlink" x="0px" y="0px"
	 viewBox="0 0 800 800" enable-background="new 0 0 800 800" xml:space="preserve">
<g>
	<path fill="#FFFFFF" d="M210.4,668.5l61.2-37c11.8,20.9,22.6,38.7,48.3,38.7c24.7,0,40.3-9.7,40.3-47.2V367.3h75.2V624
		c0,77.9-45.6,113.3-112.2,113.3C263,737.3,228.1,706.1,210.4,668.5"/>
	<path fill="#FFFFFF" d="M476.2,660.5l61.2-35.4c16.1,26.3,37.1,45.6,74.1,45.6c31.2,0,51-15.6,51-37.1c0-25.8-20.4-34.9-54.8-49.9
		l-18.8-8.1c-54.2-23.1-90.2-52.1-90.2-113.3c0-56.4,43-99.4,110.1-99.4c47.8,0,82.2,16.6,106.9,60.1l-58.5,37.6
		c-12.9-23.1-26.8-32.2-48.3-32.2c-22,0-36,14-36,32.2c0,22.6,14,31.7,46.2,45.6l18.8,8.1c63.9,27.4,99.9,55.3,99.9,118.1
		c0,67.7-53.2,104.7-124.6,104.7C543.3,737.3,498.2,704,476.2,660.5"/>
</g>
<g>
	<path fill="#FFFFFF" d="M112.3,719.7c0,0,37.1,79.8,34.8,79.8c-2.3,0.1-8.5,0-8.5,0l-10-23.1h-3.9l-1.2,23.3H115l-5-23.2h-5.8
		L99.9,800H89.1l-4.3-23.4h-6L74,799.8h-8.5l-1.2-23.3h-4l-10,23.1c0,0-6.2,0-8.5,0c-2.3-0.1,34.9-79.8,34.9-79.8l1.3-65H66.8v-4.2
		l12.2,0.1l1.5-68.3l-6-0.1v-17.5h7.1l2.8-123.8h-7.5v-10.4h9.6l1.2-92h-8.3v-23.9h-4.8l0-8.1h4.9l0.1-23.7h10.9l0.8-40.3h-6.8v-2
		h7.2L92,137.6l-7.8,0v-2h8l0.6-64.1v-0.2H86v-2h7.7l0.7-51.2l0.7,51.2h7.8v2h-6.7v0.2l0.5,64.1h8v2l-7.8,0l0.6,102.6h7.2v2H98
		l0.8,40.3h10.9l0,23.7h4.9l0,8.1h-4.8v23.9h-8.3l1.1,92h9.6v10.4h-7.5l2.9,123.8h7.1v17.5l-6,0.1l1.5,68.3l12.2-0.1v4.2H111
		L112.3,719.7L112.3,719.7z"/>
</g>
</svg>
